# xmcd
#
# Track frame offsets: 
#        150
#        9885
#        20737
#        31495
#        41790
#        53395
#        64077
#        74150
#        83270
#        93165
#        103690
#        114532
#        124575
#        136947
#        147637
#        158587
#        168587
#        178345
#        190112
#        199955
#        213315
#        223112
#        234277
#        245695
#        259347
#        274380
#        282500
#        292890
#
# Disc length: 4018 seconds
#
# Revision: 4
# Processed by: cddbd v1.5.2PL0 Copyright (c) Steve Scherf et al.
# Submitted via: ExactAudioCopyFreeDBPlugin 1.0
#
DISCID=a60fb01c
DTITLE=Fats Domino - Here Comes Fats Domino
DYEAR=1964
DGENRE=Rock´n´Roll
TTITLE0=When I´m Walking
TTITLE1=I Got A Right To Cry
TTITLE2=There Goes My Heart Again
TTITLE3=Just A Lonely Man
TTITLE4=Red Sails In The Sunset
TTITLE5=Bye Baby, Bye Bye
TTITLE6=Forever, Forever
TTITLE7=I´m Livin´ Right
TTITLE8=Can´t Go On Without You
TTITLE9=Land Of 1000 Dances
TTITLE10=Song For Rosemary
TTITLE11=Tell Me The Truth Baby
TTITLE12=Lazy Lady
TTITLE13=Let Me Call You Sweetheart
TTITLE14=Kansas City
TTITLE15=The Girl I´m Gonna Marry
TTITLE16=Wigs
TTITLE17=Man That´s All
TTITLE18=Reelin´ And Rockin´
TTITLE19=Heartbreak Hill
TTITLE20=Sally Was A Good Old Girl
TTITLE21=If You Don´t Know What Love Is
TTITLE22=The Fat Man (Live)
TTITLE23=Blueberry Hill (Live)
TTITLE24=Jambalaya (Live)
TTITLE25=Red Sails In The Sunset (Live)
TTITLE26=I´m Gonna Be A Wheel Today (Live)
TTITLE27=Be My Guest (Live)
EXTD=
EXTT0=Yesterday: 10.11.95 , 14.04.00
EXTT1=Yesterday: 18.06.99 , 06.08.99
EXTT2=
EXTT3=Yesterday: 13.10.1995
EXTT4=Yesterday: 08.01.1999
EXTT5=Yesterday: 12.05.2000
EXTT6=
EXTT7=
EXTT8=
EXTT9=Yesterday: 03.02.1995
EXTT10=
EXTT11=
EXTT12=Yesterday: 05.01.2001
EXTT13=
EXTT14=
EXTT15=
EXTT16=
EXTT17=
EXTT18=
EXTT19=
EXTT20=
EXTT21=
EXTT22=
EXTT23=Yesterday: 27.09.2002
EXTT24=
EXTT25=
EXTT26=
EXTT27=
PLAYORDER=
